<svg id="eye-icon_3_" data-name="eye-icon (3)" xmlns="http://www.w3.org/2000/svg" xmlns:xlink="http://www.w3.org/1999/xlink" width="24.915" height="16.987" viewBox="0 0 24.915 16.987">
  <defs>
    <linearGradient id="linear-gradient" x1="0.5" x2="0.5" y2="1" gradientUnits="objectBoundingBox">
      <stop offset="0" stop-color="#008da9"/>
      <stop offset="1" stop-color="#008993"/>
    </linearGradient>
  </defs>
  <path id="Path_2607" data-name="Path 2607" d="M19.41,2.192a17.275,17.275,0,0,1,5.369,6.054l.136.247-.136.245a17.3,17.3,0,0,1-5.369,6.054,12.363,12.363,0,0,1-6.952,2.194A12.366,12.366,0,0,1,5.507,14.8,17.285,17.285,0,0,1,.136,8.739L0,8.493l.136-.247A17.275,17.275,0,0,1,5.5,2.192,12.377,12.377,0,0,1,12.457,0,12.382,12.382,0,0,1,19.41,2.192ZM12.326,4.5l.827.079a2.8,2.8,0,0,0-.468,1.555A2.7,2.7,0,0,0,15.34,8.875a2.565,2.565,0,0,0,1.3-.349c.006.1.01.191.01.288A4.321,4.321,0,1,1,12.326,4.5Zm9.775,4a13.865,13.865,0,0,0-4.215-4.686,9.662,9.662,0,0,0-5.428-1.719A9.66,9.66,0,0,0,7.032,3.808,13.891,13.891,0,0,0,2.814,8.493a13.844,13.844,0,0,0,4.217,4.684A9.66,9.66,0,0,0,12.457,14.9a9.667,9.667,0,0,0,5.428-1.719A13.839,13.839,0,0,0,22.1,8.493Z" fill="url(#linear-gradient)"/>
</svg>
