<svg xmlns="http://www.w3.org/2000/svg" width="11.962" height="11.995" viewBox="0 0 11.962 11.995">
  <path id="Path_2618" data-name="Path 2618" d="M-166.094,250.266a1.933,1.933,0,0,1,.945.63c.452.464.918.915,1.36,1.388a1.1,1.1,0,0,1,0,1.51c-.293.323-.609.627-.919.934a.141.141,0,0,0-.04.2,6.387,6.387,0,0,0,.987,1.43,8.968,8.968,0,0,0,1.882,1.659c.176.114.368.2.548.312.065.039.091,0,.126-.038q.393-.393.787-.786a1.365,1.365,0,0,1,.716-.417,1.107,1.107,0,0,1,1.016.324c.527.516,1.052,1.035,1.566,1.564a1.189,1.189,0,0,1-.014,1.788q-.449.47-.91.928a2.022,2.022,0,0,1-1.705.56,7.354,7.354,0,0,1-2.868-1,12.474,12.474,0,0,1-3.239-2.553,12.639,12.639,0,0,1-2.059-2.957,7.433,7.433,0,0,1-.7-1.988,2.58,2.58,0,0,1,.1-1.551,2.037,2.037,0,0,1,.339-.527c.322-.351.664-.683,1-1.016a1.5,1.5,0,0,1,.72-.388Zm6.445,11.385a1.434,1.434,0,0,0,1.119-.336c.345-.333.68-.678,1.006-1.03a.556.556,0,0,0-.007-.852c-.52-.534-1.049-1.06-1.582-1.581a.523.523,0,0,0-.741-.023,1.777,1.777,0,0,0-.147.134c-.291.289-.579.58-.871.869a.482.482,0,0,1-.608.111,8.05,8.05,0,0,1-.715-.4,9.693,9.693,0,0,1-2.214-2,6.335,6.335,0,0,1-.95-1.482.519.519,0,0,1,.13-.675c.07-.068.145-.131.213-.2.25-.252.508-.5.746-.76a.518.518,0,0,0-.01-.766c-.531-.545-1.072-1.081-1.615-1.614a.643.643,0,0,0-.273-.146.6.6,0,0,0-.594.22c-.293.287-.59.571-.866.872a1.808,1.808,0,0,0-.332.5,1.965,1.965,0,0,0-.041,1.175,7.623,7.623,0,0,0,.863,2.224,12.653,12.653,0,0,0,2.645,3.285,11.564,11.564,0,0,0,3.385,2.115A4.638,4.638,0,0,0-159.65,261.651Z" transform="translate(168.68 -250.266)"/>
</svg>
