<svg id="recycle-bin-icon" xmlns="http://www.w3.org/2000/svg" width="15.355" height="17.233" viewBox="0 0 15.355 17.233">
  <path id="Path_2608" data-name="Path 2608" d="M.329,1.351H5.7V.527A.529.529,0,0,1,6.227,0H9.193A.529.529,0,0,1,9.72.527v.824h5.306a.33.33,0,0,1,.329.329V3.3H0V1.68a.33.33,0,0,1,.329-.329Zm.89,2.8H14.251a.481.481,0,0,1,.494.494l-1.1,12.093a.514.514,0,0,1-.494.494H2.306a.513.513,0,0,1-.494-.494L.725,4.646a.481.481,0,0,1,.494-.494ZM9.688,6.03h1.384v9.16H9.688V6.03Zm-5.47,0H5.6v9.16H4.217V6.03Zm2.735,0H8.336v9.16H6.952V6.03Z" fill="#e70404" fill-rule="evenodd"/>
</svg>
